<svg width="96" height="96" viewBox="0 0 96 96" fill="none" xmlns="http://www.w3.org/2000/svg">
    <g id="gif-error">
        <path id="Vector" d="M48 96C74.5097 96 96 74.5097 96 48C96 21.4903 74.5097 0 48 0C21.4903 0 0 21.4903 0 48C0 74.5097 21.4903 96 48 96Z" fill="#650E13" />
        <path id="Vector_2" d="M48 91C71.7482 91 91 71.7482 91 48C91 24.2518 71.7482 5 48 5C24.2518 5 5 24.2518 5 48C5 71.7482 24.2518 91 48 91Z" fill="url(#paint0_linear_1_6)" stroke="#EEEEEE" stroke-width="3" />
        <path id="Vector_3" d="M17 40V57H78V40H17Z" fill="white" />
    </g>
    <defs>
        <linearGradient id="paint0_linear_1_6" x1="18" y1="58" x2="58" y2="38" gradientUnits="userSpaceOnUse">
            <stop stop-color="#650E13" />
            <stop offset="1" stop-color="#DD3043" />
        </linearGradient>
    </defs>
</svg>