<svg xmlns="http://www.w3.org/2000/svg" xmlns:xlink="http://www.w3.org/1999/xlink" width="125.526" height="120.475" viewBox="0 0 125.526 120.475">
  <defs>
    <linearGradient id="linear-gradient" x1="0.877" y1="0.557" x2="0.407" y2="0.387" gradientUnits="objectBoundingBox">
      <stop offset="0" stop-color="#8dc73f"/>
      <stop offset="1" stop-color="#78af1d"/>
    </linearGradient>
  </defs>
  <g id="_2174691" data-name="2174691" transform="translate(16.501 1249.274)">
    <path id="Path_1" data-name="Path 1" d="M33.985-1233.735a.926.926,0,0,0-.085.281,1.76,1.76,0,0,1-.673.792,1.394,1.394,0,0,1-.6-.162c-.681-.315-.86-.2-.792.537a4.529,4.529,0,0,1-.451,2.061.919.919,0,0,1-.477.2,2.977,2.977,0,0,0-1.542,1.3,1.209,1.209,0,0,1-.537.588,3.654,3.654,0,0,0-.792.75,2.366,2.366,0,0,1-.545.554c-.06,0-.2-.119-.332-.272-.2-.247-.247-.264-.468-.187s-.238.111-.247.588c-.026,1.329-.562,2.155-1.439,2.189-.392.017-.554-.136-.554-.528,0-.469-.068-.579-.434-.767a1.8,1.8,0,0,0-.877-.17c-.494,0-.571.025-.707.213-.434.622-.409.6-.724.485a4.618,4.618,0,0,0-.579-.187,4.526,4.526,0,0,1-.6-.2c-.52-.23-1.1.017-1.1.46a3.868,3.868,0,0,0,.673,1.474,1.322,1.322,0,0,1,.366.852c.009.349-.136.562-.392.562-.392,0-.741.647-.613,1.141a1.434,1.434,0,0,0,.3.494c.307.349.375.579.273.86-.2.511-.843.349-1.465-.358a.9.9,0,0,0-.826-.417c-.656-.051-.92-.247-1.082-.826a1.443,1.443,0,0,0-.571-.826,1.094,1.094,0,0,0-.869-.366c-.477,0-.477.017-.341-.733.043-.264.017-.332-.145-.451-.273-.187-.307-.179-.451.111a.92.92,0,0,1-.392.349c-.247.1-.281.094-.528-.136l-.264-.247.06.3a1.285,1.285,0,0,0,.741.852c.23.1.247.136.247.6a.909.909,0,0,0,.23.767.986.986,0,0,1,.026,1.209c-.23.443-.17.673.213.86.409.2.494.452.375,1.133-.2,1.158-.928,1.456-1.491.622a2.018,2.018,0,0,0-.554-.528c-.29-.17-.349-.17-.767-.068-.681.17-.843.3-.843.664a.737.737,0,0,0,.179.5c.179.2.17.46-.009.46a.679.679,0,0,1-.29-.213.668.668,0,0,0-.315-.213,3.366,3.366,0,0,0-.715.392c-.46.3-.647.375-.826.341-.4-.077-.494.009-.494.477a.76.76,0,0,1-.247.673.85.85,0,0,1-.46.247c-.315,0-.417.187-.358.622.051.332.034.383-.162.52-.29.187-.281.264.094.52a1.188,1.188,0,0,0,.758.213c.818,0,1,.6.2.664-.434.034-.537.1-.818.571a3.965,3.965,0,0,1-.6.7l-.392.349.2.63a6,6,0,0,0,.358.886,2.734,2.734,0,0,1,.29,1.4.729.729,0,0,1-.315.307l-.256.136.187.17a.422.422,0,0,1,.136.477c-.077.485-.187.545-1.167.579a2.028,2.028,0,0,1-1.354-.221,1.784,1.784,0,0,1-.681-.545,2.885,2.885,0,0,0-1.141-.818c-.119,0-.034.358.162.647a1.342,1.342,0,0,1,.281,1.15c-.085.238-.06.281.264.579a1.128,1.128,0,0,1,.349.485,2.029,2.029,0,0,1-.341.639l-.332.477-.826.06c-.733.051-.843.034-1.1-.119a1.094,1.094,0,0,0-1.244.06c-.179.136-.332.273-.332.324a2.387,2.387,0,0,0,.341.511c.468.588.715,1.116.639,1.4-.026.119-.068.307-.094.4a.568.568,0,0,0,.111.426,2.2,2.2,0,0,1,.238.494.515.515,0,0,0,.358.341c.46.153.562.324.613,1.039.051.554.085.673.264.818a.565.565,0,0,0,.494.119,1.3,1.3,0,0,1,.417.009,2.075,2.075,0,0,1,.537,1.286.787.787,0,0,0,.6.869,1.368,1.368,0,0,1,.928.818c.145.435.051.639-.434.963-.451.307-.588.528-.588.954a2.087,2.087,0,0,1-.179.673c-.17.392-.17.417-.026.69.153.315.264.417.451.417.085,0,.1-.094.06-.409a1.059,1.059,0,0,1,.537-1.141c.281-.145.307-.145.579.026.332.2.537.119.537-.238,0-.554.417-.724.664-.264a2.763,2.763,0,0,0,.409.528,2.118,2.118,0,0,1,.366.452.361.361,0,0,0,.273.2c.238,0,.5.153.5.29a.807.807,0,0,1-.17.332.785.785,0,0,0-.17.383,2.271,2.271,0,0,0,.426,1c.068.043.085.2.043.511-.051.443-.043.46.213.656a3.936,3.936,0,0,1,1.022,1.49,1.121,1.121,0,0,0,.247.485c.375.469.451.988.145.988a1.16,1.16,0,0,1-.417-.349c-.264-.29-.332-.324-.477-.247a.786.786,0,0,0-.273.426,1.044,1.044,0,0,0,.077.826,5.792,5.792,0,0,1,.383,1.695c-.051.128-.307.2-.733.2-.256,0-.392-.068-.69-.341-.571-.528-.673-.451-.511.366.128.613.256.758.733.818l.366.051.051.6a2.749,2.749,0,0,0,.23.954.733.733,0,0,1-.068,1.022,3.027,3.027,0,0,0-.383.707,3.021,3.021,0,0,1-.392.7,1.841,1.841,0,0,0-.383,1.848,6.417,6.417,0,0,1,.307.988,7.934,7.934,0,0,0,.264.911,1.247,1.247,0,0,0,1.014.494c.451.043.468.051.494.315.034.349.111.4.869.579.8.2.9.188,1.209-.1a.756.756,0,0,1,1.312.375c.068.349.213.426.477.247a.631.631,0,0,1,.9.145,2.978,2.978,0,0,1,.613,1.516.481.481,0,0,1-.417.5,2,2,0,0,1-1.073-.928c-.179-.409-.324-.434-.647-.128-.128.119-.332.307-.451.417-.366.341-.3.579.392,1.286.6.622.613.63,1.048.63.341,0,.477-.043.6-.179a.357.357,0,0,1,.417-.119c.136.026.443.077.664.1.341.034.443.085.562.29a1.736,1.736,0,0,0,.375.417c.213.17.468.809.366.92-.034.026-.187-.017-.349-.094a1.69,1.69,0,0,0-.409-.145c-.221,0-.426-.238-.477-.562-.043-.264-.1-.349-.3-.417s-.264-.051-.4.111c-.179.221-.145.366.179.784a5.906,5.906,0,0,1,.375.571c.136.264.136.281-.043.46-.264.264-.775.187-1.354-.213-.494-.341-.733-.349-1.048-.068-.417.375-.324.767.2.92a1.018,1.018,0,0,1,.528.443l.247.366.537-.026c.647-.026.809.077.809.537,0,.358.111.485.307.324.1-.077.119-.2.068-.554-.06-.528.094-1.3.281-1.371a2.016,2.016,0,0,1,1.175.4l.153.17.187-.17c.162-.153.2-.162.29-.051a.614.614,0,0,1,.077.4c-.017.221-.077.3-.238.332a.635.635,0,0,0-.366.366c-.187.4-.341.46-.715.281a.671.671,0,0,0-.375-.094c-.119.077-.094.264.051.383a.438.438,0,0,1,.128.3,2.452,2.452,0,0,0,.707,1.107c.281.2.647.162.75-.068.077-.17.051-.256-.136-.537-.238-.349-.238-.5.017-1.031.238-.511.528-.443.962.221a1.367,1.367,0,0,1,.238.579.837.837,0,0,1-.349.358c-.29.187-.307.222-.187.349a5.181,5.181,0,0,0,.6.469c.494.332.426.324,1.346.162a.394.394,0,0,1,.434.128c.136.153.145.221.06.554a.842.842,0,0,0,.043.681c.238.494.153.571-.767.69a.95.95,0,0,0-.664.315,1.548,1.548,0,0,0-.324,1.542,1.449,1.449,0,0,0,1.175,1.337c.417.094.477.094.681-.06a2.416,2.416,0,0,0,.75-1.542c.068-.733.111-.869.273-.869a2.9,2.9,0,0,1,1.337.937c.221.315.332.392.613.443a3.17,3.17,0,0,1,.724.247,2.5,2.5,0,0,0,1.005.23c.6.034.656.06.98.358a1.735,1.735,0,0,0,.613.383,3.328,3.328,0,0,1,.809.417,3.073,3.073,0,0,0,1.516.6c.383.051,1.022.4,1.022.554,0,.051.077.085.179.085s.2-.085.264-.264l.094-.264.494.051a1.4,1.4,0,0,0,1.329-.349c.324-.477.69-.792.92-.792.332,0,1.269.7,2.845,2.1a2.888,2.888,0,0,0,1.048.707c.63.17.877.077,1.6-.639a4.617,4.617,0,0,1,.75-.639.305.305,0,0,1,.17.111c.068.085.043.2-.111.451a1.215,1.215,0,0,0-.119,1.133c.111.307.256.332.588.094a.813.813,0,0,1,1.371.409c.221.52.358.613.894.613a2.31,2.31,0,0,1,.673.085,3.254,3.254,0,0,0,1.8-.392.781.781,0,0,1,.63-.162.942.942,0,0,0,.511-.043c.256-.1.247-.111.928.281.23.128.315.136.664.043a1.467,1.467,0,0,0,.681-.383c.332-.324.5-.349.98-.1a1.01,1.01,0,0,0,.52.128,1.094,1.094,0,0,1,.494.094c.426.162.562.111.63-.264.068-.341.307-.588.528-.545.119.026.145.1.128.341-.026.383.179.554.775.63a1.611,1.611,0,0,1,1.218.979,1.206,1.206,0,0,0,.971.716,2.018,2.018,0,0,1,1.235.92c.153.315.2.358.486.383.426.034.579.264.579.852,0,.537.2,1.005.451,1.073a1.968,1.968,0,0,0,.545-.009c.434-.06.664.094.75.494.043.187.1.247.256.247.256,0,.307-.153.238-.767a1.1,1.1,0,0,1,.17-.877.859.859,0,0,0,.17-.69c-.043-.3-.017-.349.366-.715A3.219,3.219,0,0,0,61.5-1152a.785.785,0,0,0-.17-.358,1.013,1.013,0,0,1,.009-1.141c.2-.2.366-.17.954.187.733.443,1.158.281,1.695-.639a6.825,6.825,0,0,1,.937-1.175c.554-.562.579-.6.528-.9-.043-.264,0-.375.213-.673l.264-.366H67.1c1.312,0,1.474-.051,1.627-.537a1.4,1.4,0,0,0-.034-.852,5.321,5.321,0,0,1-.119-.928,1.52,1.52,0,0,0-.085-.571c-.077-.128-.077-.23-.026-.281.136-.136.392.051.733.528a1.547,1.547,0,0,0,1.09.767,17.725,17.725,0,0,1,2.155.392,8.679,8.679,0,0,0,1.908.094c1.158-.026,1.329-.009,1.5.128a1.613,1.613,0,0,0,.6.213c.443.06.434.085.06-.477-.23-.341-.238-.383-.06-.554a1.047,1.047,0,0,1,1.082.043,3.187,3.187,0,0,0,1.073.255,3.608,3.608,0,0,1,1.508.469,4.186,4.186,0,0,1,.962.6c.23.3.417.256.562-.119a1.953,1.953,0,0,1,1.789-.784,2.348,2.348,0,0,0,.962-.17,2.209,2.209,0,0,1,1.227-.111c.8.051.877.068,1.158.315.264.239.375.273.988.315a8.43,8.43,0,0,0,1.244-.026,5.493,5.493,0,0,1,1.124-.026c.656.06.75-.017.75-.656a3.35,3.35,0,0,1,.179-.835c.3-.809.3-.9-.009-1.09a2.069,2.069,0,0,0-.681-.221,1.611,1.611,0,0,1-.622-.221,2.909,2.909,0,0,0-.6-.332,1.065,1.065,0,0,1-.52-.417c-.2-.4-.349-.477-.579-.324-.375.264-.911.1-.784-.239a.9.9,0,0,1,.494-.264,1.246,1.246,0,0,0,.673-.426.768.768,0,0,1,.409-.3,3.406,3.406,0,0,1,1.2.579c.315.2.332.2.69.068a1.25,1.25,0,0,1,1.167.034,2.624,2.624,0,0,0,.383.17,5.722,5.722,0,0,0,.588-.5,1.767,1.767,0,0,1,1.065-.613,1.076,1.076,0,0,0,.784-.4c.264-.3.264-.29.145-1-.017-.128.034-.17.307-.221a.974.974,0,0,0,.6-.349,1.735,1.735,0,0,1,1.209-.664c.4,0,.588-.119,1.439-.911.835-.784.809-.852-.358-1.116a8.749,8.749,0,0,0-1.056-.187,2.561,2.561,0,0,1-.715-.222,1.382,1.382,0,0,0-.869-.179,1.959,1.959,0,0,1-.647-.034,1.215,1.215,0,0,0-.579.009,2.817,2.817,0,0,1-1.584-.307c-.23-.145-.417-.153-.92-.017a.755.755,0,0,1-.681-.043,2.631,2.631,0,0,0-.664-.2,2.391,2.391,0,0,1-.63-.213,3.064,3.064,0,0,1-.877-.92c0-.17-.281-.349-.562-.349-.23,0-.307-.043-.366-.2a9.357,9.357,0,0,1-.085-2.53,7.092,7.092,0,0,0,.247-2.078c-.009-.724.111-.988.468-.988.417,0,.5.4.2.937-.111.179-.162.358-.128.392.085.085.894-.358,1.235-.673.256-.247.29-.256.571-.153.392.136.6.017.724-.409a2.3,2.3,0,0,1,.383-.7,2.127,2.127,0,0,0,.349-.613c.094-.451.715-.485.715-.034.009.724.468.792.809.111.145-.29.307-.2.486.264.179.485.571.843.809.758.119-.051.1-.094-.1-.3-.247-.264-.238-.332.068-.673a.558.558,0,0,1,.733-.085c.324.2.434.034.434-.639a3.435,3.435,0,0,1,.17-1.107,2.969,2.969,0,0,0,.17-.681,1.166,1.166,0,0,0-.681-.835.775.775,0,0,1-.434-.979c.043-.187.111-.6.145-.928a3.1,3.1,0,0,1,.136-.758,2.733,2.733,0,0,0,.077-.852,4.308,4.308,0,0,1,.162-1.3,1.951,1.951,0,0,0-.043-1.644,2.708,2.708,0,0,1-.213-1.3,2.618,2.618,0,0,0-.707-1.976c-.349-.528-.477-.588-1.414-.758s-2.215-.877-2.223-1.235a2.452,2.452,0,0,0-.537-1.141,1.983,1.983,0,0,1-.315-.52,2.9,2.9,0,0,0-.256-.6c-.375-.7-.23-1.048.537-1.329.29-.1.4-.213.6-.579.239-.443.239-.443.664-.443h.426l1.141,1.1a5.734,5.734,0,0,0,1.4,1.141.941.941,0,0,1,.477.358c.128.162.273.3.332.3a3.858,3.858,0,0,1,1.244.937,1.34,1.34,0,0,0,.937.545c.307.068.639.145.741.179.162.051.273-.026.647-.409a1.461,1.461,0,0,1,.767-.528c.315-.06.341-.042.767.417.528.562.6.571,1.525.247l.656-.23.426.153c.468.162.724.128.86-.128a1.621,1.621,0,0,1,.426-.375,1.623,1.623,0,0,0,.545-.622,4.691,4.691,0,0,1,.511-.775,1.931,1.931,0,0,0,.358-.579c.094-.358-.162-.741-.733-1.1-1.38-.869-1.244-.724-1.525-1.644a3.2,3.2,0,0,0-.443-1,2.942,2.942,0,0,1-.434-.6,1.608,1.608,0,0,0-1.38-.92c-.767-.145-1.039-.077-1.167.29a.4.4,0,0,1-.366.3,1.129,1.129,0,0,0-.588.434,1.339,1.339,0,0,1-1.167.537c-.23-.026-.247-.17-.119-.971.043-.315.026-.366-.179-.537a.868.868,0,0,0-1.014-.017,2.489,2.489,0,0,1-.869.221c-.5.051-.656.034-.835-.085a.737.737,0,0,0-.6-.094,1.872,1.872,0,0,1-1-.162c-.349-.119-1.031-.324-1.525-.46a3.6,3.6,0,0,1-1.661-.8,3.918,3.918,0,0,1-.928-.86c-.2-.383-.349-.434-.647-.2-.213.153-.264.162-.392.059a3.959,3.959,0,0,1,.162-2.257.71.71,0,0,0,.034-.775,2.755,2.755,0,0,1-.145-.6,4.364,4.364,0,0,0-.213-.809c-.273-.792-.264-.911.043-1.482a1.314,1.314,0,0,0,.2-.571,1.643,1.643,0,0,0-.383-.341,1.192,1.192,0,0,1-.366-.341c-.017-.051-.077-.324-.128-.588a2.2,2.2,0,0,0-.392-.86,2.323,2.323,0,0,1-.375-.758c-.051-.2-.162-.588-.264-.852a3.489,3.489,0,0,1-.17-1.116c0-.818-.145-1-.809-1-.451,0-.468.009-.767.392a1.858,1.858,0,0,0-.3.5.306.306,0,0,1-.119.2.8.8,0,0,0-.179.341,2.4,2.4,0,0,1-.341.647,2.152,2.152,0,0,0-.3.511c0,.213-.315.366-.886.409a1.319,1.319,0,0,1-1.363-.537,1.976,1.976,0,0,0-1.09-.6.426.426,0,0,0-.341.256c-.17.3-.264.315-.494.085a.747.747,0,0,1-.17-.6c0-.3-.034-.443-.128-.477a1.04,1.04,0,0,0-.835.315c-.128.2-.341.2-.622.017-.2-.119-.273-.128-.622-.034a4.289,4.289,0,0,0-.758.281c-.46.213-.554.145-.571-.435-.017-.664-.6-1.3-.937-1.031-.179.145-.153.511.043.767a.883.883,0,0,1-.349,1.286c-.23.119-.545-.085-.733-.477-.077-.162-.2-.3-.281-.3-.179,0-.426.52-.426.9a.392.392,0,0,0,.273.443,1.567,1.567,0,0,1,.86,1.175c.238.945.256.911-.647,1.014a.889.889,0,0,1-.818-.162,4.188,4.188,0,0,0-1.993-.375,2.108,2.108,0,0,1-1.048-.366c-.588-.307-.733-.417-.784-.63l-.068-.256-.6.026c-.715.043-.945-.1-1.031-.622-.06-.426-.221-.613-.571-.681-.145-.034-.332-.077-.417-.1a2.765,2.765,0,0,1-.681-1.448.725.725,0,0,1,.23-.3c.238-.187.119-.281-.213-.162-.511.179-.7.1-1.5-.613a1,1,0,0,0-.622-.315,1.14,1.14,0,0,1-.417-.077,4.368,4.368,0,0,1-.639-1.405c-.043-.136-.111-.145-.5-.1a.811.811,0,0,1-.8-.2c-.307-.23-.358-.315-.383-.613-.026-.349-.043-.366-.92-.954-1.15-.767-1.789-1.457-1.789-1.916,0-.213.656-.775,1.3-1.124.511-.273.571-.349.733-1.048a1.814,1.814,0,0,1,.392-.75,1.149,1.149,0,0,0,.051-1.525,3.318,3.318,0,0,1-.511-1.806c-.043-.673-.077-.784-.213-.809a.5.5,0,0,0-.375.2c-.221.239-.256.239-.954.077-.17-.034-.281.017-.537.264-.332.324-.366.46-.221.877.119.358-.017.588-.46.784l-.358.153.324.06c.443.085.826.417.826.724,0,.4-.179.469-1.295.469H55.517l-.221.273a4.694,4.694,0,0,0-.4.545,2.561,2.561,0,0,1-.656.6,3.181,3.181,0,0,0-.664.579c-.1.136-.247.256-.332.256-.213,0-.477-.315-.681-.792a.841.841,0,0,0-.443-.52c-.486-.2-.758.026-.758.613,0,.724-.809.835-1.056.153a.881.881,0,0,1,.043-.451c.068-.213.187-.332.486-.477.46-.221.562-.477.29-.767a1.039,1.039,0,0,1-.23-.426c-.111-.417.017-.639.477-.869.375-.2.426-.247.4-.451-.017-.187-.094-.255-.375-.349a.872.872,0,0,0-.715,0c-.324.1-.392.17-.494.46-.29.835-.3.852-.98,1.09-.937.332-1.107.3-1.218-.264a.559.559,0,0,1,.128-.511.6.6,0,0,0-.043-.877c-.23-.221-.238-.392-.034-.894.136-.324.068-.545-.17-.545a.508.508,0,0,1-.554-.494c-.128-.732-.2-.775-.775-.469a1.331,1.331,0,0,1-1.405-.026c-.153-.136-.17-.23-.136-.8.026-.349.068-.766.1-.92.068-.324.034-.332-.29-.094a1.134,1.134,0,0,1-.741.17c-.494,0-.511,0-.852.392-.4.451-.545.426-.545-.094a1.092,1.092,0,0,0-.128-.528c-.119-.153-.119-.153-.128.068a.574.574,0,0,1-.349.622c-.375.2-.486.162-.928-.3-.4-.417-.417-.426-.92-.426-.656,0-.758.1-.588.6.213.639-.009.9-.835.988-.383.042-.511.094-.613.255a1.971,1.971,0,0,1-.494.417.74.74,0,0,0-.451.571c-.162.63-.894,1.158-1.363.988-.29-.111-.383-.452-.307-1.141.128-1.048.026-1.218-.6-1.082-.349.077-.417.068-.562-.077-.128-.128-.162-.281-.153-.784.009-.767.06-.9.426-1.073.511-.239.451-.843-.111-1.116C34.13-1233.94,34.1-1233.94,33.985-1233.735Z" transform="translate(-16.501 -15.386)" fill="url(#linear-gradient)"/>
    <path id="Path_2" data-name="Path 2" d="M556.2-1208.884c-.136.221.256.681.469.554.136-.085.1-.528-.051-.588C556.419-1209,556.257-1208.978,556.2-1208.884Z" transform="translate(-508.798 -22.798)" fill="url(#linear-gradient)"/>
    <path id="Path_3" data-name="Path 3" d="M270.621-1184.781c-.153.179.051,1.252.23,1.252.52,0,.69-.639.3-1.1C270.911-1184.908,270.766-1184.951,270.621-1184.781Z" transform="translate(-247.521 -44.832)" fill="url(#linear-gradient)"/>
    <path id="Path_4" data-name="Path 4" d="M571.28-1177.574a.157.157,0,0,0,.026.187.082.082,0,0,0,.145-.017.157.157,0,0,0-.026-.187A.082.082,0,0,0,571.28-1177.574Z" transform="translate(-522.603 -51.468)" fill="url(#linear-gradient)"/>
    <path id="Path_5" data-name="Path 5" d="M252.243-1157.812c-.051.136.281.545.451.545s.213-.264.077-.477C252.618-1157.974,252.32-1158.016,252.243-1157.812Z" transform="translate(-230.753 -69.476)" fill="url(#linear-gradient)"/>
    <path id="Path_6" data-name="Path 6" d="M14.056-956.5a.345.345,0,0,0,.06.451c.085.068.136.068.213-.026s.06-.153-.051-.3C14.192-956.478,14.09-956.537,14.056-956.5Z" transform="translate(-12.804 -253.749)" fill="url(#linear-gradient)"/>
    <path id="Path_7" data-name="Path 7" d="M41-781.8a.713.713,0,0,0,.537.571c.187,0,.179-.136-.034-.477S41-782.1,41-781.8Z" transform="translate(-37.508 -413.399)" fill="url(#linear-gradient)"/>
    <path id="Path_8" data-name="Path 8" d="M32-748.738a.134.134,0,0,0,.136.136c.145,0,.119-.187-.034-.238C32.043-748.857,32-748.814,32-748.738Z" transform="translate(-29.274 -443.73)" fill="url(#linear-gradient)"/>
    <path id="Path_9" data-name="Path 9" d="M74.665-701.718c-.281.068-.443.162-.486.273a2.025,2.025,0,0,0,.034,1.15,2.626,2.626,0,0,0,1.422.724,1.35,1.35,0,0,0,.417-.349c.247-.281.256-.315.2-.826-.06-.664-.136-.809-.494-.963A1.53,1.53,0,0,0,74.665-701.718Z" transform="translate(-67.8 -486.755)" fill="url(#linear-gradient)"/>
    <path id="Path_10" data-name="Path 10" d="M1176.219-568.862c-.187.1-.2.324-.026.383s.554-.187.554-.349C1176.747-568.973,1176.44-569,1176.219-568.862Z" transform="translate(-1075.899 -608.3)" fill="url(#linear-gradient)"/>
    <path id="Path_11" data-name="Path 11" d="M1260.571-507.592a.87.87,0,0,0-.375,1.312,1.588,1.588,0,0,0,1.056.434,2.577,2.577,0,0,0,.477-1.056,1.51,1.51,0,0,0-.639-.826A1.261,1.261,0,0,0,1260.571-507.592Z" transform="translate(-1152.704 -664.306)" fill="url(#linear-gradient)"/>
    <path id="Path_12" data-name="Path 12" d="M819.272-290.867c-.068.162-.068.238.017.341.2.238.767.094.767-.2A.418.418,0,0,0,819.272-290.867Z" transform="translate(-749.445 -862.497)" fill="url(#linear-gradient)"/>
    <path id="Path_13" data-name="Path 13" d="M797.606-262.56a1.464,1.464,0,0,1-.8.349c-.656.094-.7.136-.86.86l-.145.639.221.341c.264.392.392.409,1.014.136a1.86,1.86,0,0,0,1.048-1.141,4.212,4.212,0,0,1,.358-.707.888.888,0,0,0,.17-.511c-.026-.179-.077-.213-.324-.238A.848.848,0,0,0,797.606-262.56Z" transform="translate(-728.017 -888.343)" fill="url(#linear-gradient)"/>
    <path id="Path_14" data-name="Path 14" d="M189.336-260.736c-.281.332-.281.46,0,.647.264.17.451.085.562-.247.085-.256-.051-.664-.221-.664A.725.725,0,0,0,189.336-260.736Z" transform="translate(-173.016 -890.021)" fill="url(#linear-gradient)"/>
    <path id="Path_15" data-name="Path 15" d="M40.036-259.666a.924.924,0,0,0-.426.911c.043.179.63.358.92.29.341-.094.5-1.014.221-1.269C40.539-259.93,40.4-259.913,40.036-259.666Z" transform="translate(-36.221 -891.057)" fill="url(#linear-gradient)"/>
    <path id="Path_16" data-name="Path 16" d="M530.059-248.756a2.361,2.361,0,0,0-.451.264c-.247.17-.255.187-.1.3.358.256,1.158.06,1.209-.307C530.766-248.816,530.485-248.926,530.059-248.756Z" transform="translate(-484.311 -901.149)" fill="url(#linear-gradient)"/>
    <path id="Path_17" data-name="Path 17" d="M882.852-233.718c-.477.17-.852.417-.852.554a3.2,3.2,0,0,0,.8,1.371l.366.417.375-.4a3.375,3.375,0,0,0,.443-.571c.1-.29-.094-.707-.494-1.082C883.107-233.786,883.073-233.794,882.852-233.718Z" transform="translate(-806.875 -914.944)" fill="url(#linear-gradient)"/>
    <path id="Path_18" data-name="Path 18" d="M497.468-221.823a2.234,2.234,0,0,0-.468.945,1.284,1.284,0,0,0,.3.486l.281.341.366-.256a1.429,1.429,0,0,0,.673-.92.971.971,0,0,0-.29-.443C498.014-221.985,497.69-222.044,497.468-221.823Z" transform="translate(-454.668 -925.74)" fill="url(#linear-gradient)"/>
    <path id="Path_19" data-name="Path 19" d="M193.264-210.716c-.6.332.068,1.235.715.971.315-.128.383-.426.179-.775A.607.607,0,0,0,193.264-210.716Z" transform="translate(-176.586 -935.919)" fill="url(#linear-gradient)"/>
    <path id="Path_20" data-name="Path 20" d="M691.859-210.819a.6.6,0,0,0-.307.273,17.794,17.794,0,0,1-1.84,2.1,1,1,0,0,0-.392.792,1.553,1.553,0,0,1-.162.588,1.62,1.62,0,0,0-.009,1.1q.2.588.562.588a.921.921,0,0,1,.92.63c.136.341.187.392.46.434a3.4,3.4,0,0,1,.562.136,2.81,2.81,0,0,0,1.184.2,2.444,2.444,0,0,0,.477-.256.89.89,0,0,1,1.09-.017l.366.2.162-.213c.451-.6.537-.681.639-.681.273,0,.307-.23.085-.69-.315-.69-.341-.937-.136-1.346a5.543,5.543,0,0,0,.383-1.806,5.9,5.9,0,0,0-.75-.528,5.967,5.967,0,0,1-1.022-.852,1.523,1.523,0,0,0-1.465-.732A3.358,3.358,0,0,0,691.859-210.819Z" transform="translate(-630.371 -935.85)" fill="url(#linear-gradient)"/>
    <path id="Path_21" data-name="Path 21" d="M583.741-180.8c-.468.128-.741.349-.741.6a3.158,3.158,0,0,0,.162.647c.162.5.341.647.9.741a.864.864,0,0,0,.894-.511c.417-.673.017-1.618-.664-1.584A3.574,3.574,0,0,0,583.741-180.8Z" transform="translate(-533.343 -963.289)" fill="url(#linear-gradient)"/>
    <path id="Path_22" data-name="Path 22" d="M787-157.749a.8.8,0,0,0-.375.9c.068.179.136.213.46.213.724,0,1.09-.613.647-1.09C787.521-157.954,787.343-157.962,787-157.749Z" transform="translate(-719.594 -984.337)" fill="url(#linear-gradient)"/>
    <path id="Path_23" data-name="Path 23" d="M849.644-145.787c-.315.477.5,1.584.988,1.32a1.2,1.2,0,0,0,.273-1.158,1.413,1.413,0,0,0-.86-.375A.432.432,0,0,0,849.644-145.787Z" transform="translate(-777.211 -995.226)" fill="url(#linear-gradient)"/>
    <path id="Path_24" data-name="Path 24" d="M460.793-133.732a1.2,1.2,0,0,1-.451.128c-.366,0-.971.6-1.124,1.133a1.553,1.553,0,0,0,.085,1.371l.213.477h.537a1.152,1.152,0,0,0,.886-.247,1.728,1.728,0,0,0,.835-1.371c.111-1,.094-1.107-.2-1.38C461.27-133.885,461.108-133.911,460.793-133.732Z" transform="translate(-419.994 -1006.345)" fill="url(#linear-gradient)"/>
    <path id="Path_25" data-name="Path 25" d="M1044.223-110.826a.539.539,0,0,0,.085.673c.341.213.766-.409.485-.69A.439.439,0,0,0,1044.223-110.826Z" transform="translate(-955.206 -1027.3)" fill="url(#linear-gradient)"/>
    <path id="Path_26" data-name="Path 26" d="M623.724-82.705a1.888,1.888,0,0,0-.111,1.1,3.42,3.42,0,0,0,.63.068c.673.026.7,0,.6-.673a.626.626,0,0,0-.324-.545C624.15-82.978,623.894-82.961,623.724-82.705Z" transform="translate(-570.455 -1052.942)" fill="url(#linear-gradient)"/>
    <path id="Path_27" data-name="Path 27" d="M602.073-44.69c-.043.111-.111.307-.153.451a1.094,1.094,0,0,1-.434.5c-.349.23-.366.264-.315.571.026.187.077.494.1.69.085.656.119.75.426,1.09.332.366.494.417.716.213a1.64,1.64,0,0,1,.477-.238,1.141,1.141,0,0,0,.715-.86,4.526,4.526,0,0,1,.256-.894c.3-.877.264-.988-.332-1.048a1.126,1.126,0,0,1-.775-.349C602.362-44.929,602.183-44.954,602.073-44.69Z" transform="translate(-549.945 -1087.746)" fill="url(#linear-gradient)"/>
  </g>
</svg>
