<svg xmlns="http://www.w3.org/2000/svg" width="12" height="12" viewBox="0 0 7.623 7.622">
  <g id="up-arrow-svgrepo-com" transform="translate(7.623 -0.001) rotate(90)">
    <g id="Group_10" data-name="Group 10" transform="translate(0.001)">
      <path id="Path_306" data-name="Path 306" d="M3.812,0A3.811,3.811,0,1,0,7.623,3.811,3.811,3.811,0,0,0,3.812,0Zm1.72,4.822a.356.356,0,0,1-.5,0L3.8,3.6,2.57,4.829a.356.356,0,1,1-.5-.5L3.5,2.9a.359.359,0,0,1,.048-.06.362.362,0,0,1,.563.06L5.532,4.319A.356.356,0,0,1,5.532,4.822Z" transform="translate(-0.001)" fill="#79b01e"/>
    </g>
  </g>
</svg>
